<?xml version="1.0" standalone="no"?>
<!DOCTYPE svg PUBLIC "-//W3C//DTD SVG 20010904//EN"
 "http://www.w3.org/TR/2001/REC-SVG-20010904/DTD/svg10.dtd">
<svg version="1.0" xmlns="http://www.w3.org/2000/svg"
 width="1109.000000pt" height="1280.000000pt" viewBox="0 0 1109.000000 1280.000000"
 preserveAspectRatio="xMidYMid meet">
<g transform="translate(0.000000,1280.000000) scale(0.100000,-0.100000)"
fill="#000000" stroke="none">
<path d="M2780 11194 c-1520 -877 -2767 -1594 -2772 -1594 -4 0 -8 -1440 -8
-3200 0 -1760 4 -3200 8 -3200 5 0 411 -232 903 -516 3521 -2032 4624 -2667
4634 -2667 11 0 783 444 4409 2537 616 355 1123 646 1128 646 4 0 8 1439 8
3198 l0 3197 -23 11 c-12 5 -305 174 -652 374 -3748 2162 -4833 2789 -4851
2798 -18 9 -368 -189 -2784 -1584z"/>
</g>
</svg>
